<svg xmlns="http://www.w3.org/2000/svg" width="30" height="30" viewBox="0 0 30 30" fill="none">
    <path d="M15 0C12.0333 0 9.13319 0.879735 6.66645 2.52796C4.19972 4.17618 2.27713 6.51886 1.14181 9.25975C0.00649929 12.0006 -0.290551 15.0166 0.288228 17.9264C0.867006 20.8361 2.29562 23.5088 4.3934 25.6066C6.49119 27.7044 9.16394 29.133 12.0737 29.7118C14.9834 30.2906 17.9994 29.9935 20.7403 28.8582C23.4812 27.7229 25.8238 25.8003 27.4721 23.3336C29.1203 20.8668 30 17.9667 30 15C29.9955 11.0231 28.4137 7.21044 25.6016 4.39837C22.7896 1.5863 18.9769 0.00449947 15 0ZM20.32 15.859L13.428 22.751C13.2001 22.979 12.8909 23.107 12.5685 23.107C12.2461 23.107 11.937 22.979 11.709 22.751C11.4811 22.523 11.353 22.2139 11.353 21.8915C11.353 21.5691 11.4811 21.26 11.709 21.032L17.743 15L11.71 8.967C11.4821 8.73905 11.354 8.42988 11.354 8.1075C11.354 7.78513 11.4821 7.47595 11.71 7.248C11.938 7.02005 12.2471 6.89198 12.5695 6.89198C12.8919 6.89198 13.2011 7.02005 13.429 7.248L20.321 14.14C20.4339 14.2528 20.5235 14.3868 20.5847 14.5343C20.6458 14.6818 20.6772 14.8399 20.6772 14.9995C20.6772 15.1591 20.6458 15.3172 20.5847 15.4647C20.5235 15.6122 20.4329 15.7462 20.32 15.859Z" fill="#092A5E"/>
</svg>