<svg xmlns="http://www.w3.org/2000/svg" width="30" height="30" viewBox="0 0 30 30" fill="none">
    <path d="M14.999 0C17.9657 0 20.8658 0.879735 23.3326 2.52796C25.7993 4.17618 27.7219 6.51886 28.8572 9.25975C29.9925 12.0006 30.2896 15.0166 29.7108 17.9264C29.132 20.8361 27.7034 23.5088 25.6056 25.6066C23.5078 27.7044 20.8351 29.133 17.9254 29.7118C15.0157 30.2906 11.9997 29.9935 9.25877 28.8582C6.51788 27.7229 4.1752 25.8003 2.52698 23.3336C0.878758 20.8668 -0.000976562 17.9667 -0.000976562 15C0.00352291 11.0231 1.58532 7.21044 4.39739 4.39837C7.20946 1.5863 11.0222 0.00449947 14.999 0ZM9.67902 15.859L16.571 22.751C16.6839 22.8639 16.8179 22.9534 16.9654 23.0145C17.1128 23.0756 17.2709 23.107 17.4305 23.107C17.5901 23.107 17.7482 23.0756 17.8957 23.0145C18.0432 22.9534 18.1772 22.8639 18.29 22.751C18.4029 22.6381 18.4924 22.5041 18.5535 22.3567C18.6146 22.2092 18.646 22.0511 18.646 21.8915C18.646 21.7319 18.6146 21.5738 18.5535 21.4263C18.4924 21.2789 18.4029 21.1449 18.29 21.032L12.257 15L18.29 8.967C18.4029 8.85413 18.4924 8.72013 18.5535 8.57266C18.6146 8.42518 18.646 8.26712 18.646 8.1075C18.646 7.94788 18.6146 7.78982 18.5535 7.64234C18.4924 7.49487 18.4029 7.36087 18.29 7.248C18.1772 7.13513 18.0432 7.04559 17.8957 6.98451C17.7482 6.92342 17.5901 6.89198 17.4305 6.89198C17.2709 6.89198 17.1128 6.92342 16.9654 6.98451C16.8179 7.04559 16.6839 7.13513 16.571 7.248L9.67902 14.14C9.56609 14.2528 9.4765 14.3868 9.41538 14.5343C9.35425 14.6818 9.32279 14.8399 9.32279 14.9995C9.32279 15.1591 9.35425 15.3172 9.41538 15.4647C9.4765 15.6122 9.56609 15.7462 9.67902 15.859Z" fill="#092A5E"/>
</svg>