<svg width="42" height="43" viewBox="0 0 42 43" fill="none" xmlns="http://www.w3.org/2000/svg">
<path d="M21.0082 0C25.16 0 29.2186 1.23521 32.6706 3.54944C36.1227 5.86367 38.8133 9.15297 40.4021 13.0014C41.9909 16.8498 42.4066 21.0845 41.5966 25.17C40.7867 29.2554 38.7874 33.0081 35.8516 35.9536C32.9159 38.899 29.1755 40.9049 25.1035 41.7176C21.0315 42.5302 16.8108 42.1131 12.975 40.5191C9.1393 38.925 5.86083 36.2255 3.55423 32.7621C1.24762 29.2986 0.0164795 25.2266 0.0164795 21.0611C0.022889 15.4773 2.23657 10.1241 6.1719 6.17576C10.1072 2.22743 15.4428 0.00643066 21.0082 0ZM21.0082 39.0019C24.5453 39.0019 28.0029 37.9496 30.9438 35.978C33.8847 34.0065 36.1769 31.2042 37.5305 27.9256C38.884 24.647 39.2382 21.0394 38.5482 17.5588C37.8581 14.0783 36.1549 10.8812 33.6538 8.37188C31.1528 5.86256 27.9662 4.15369 24.4971 3.46137C21.0281 2.76904 17.4323 3.12437 14.1645 4.48241C10.8967 5.84044 8.10367 8.1402 6.1386 11.0909C4.17353 14.0415 3.12468 17.5105 3.12468 21.0593C3.12961 25.8164 5.01535 30.3773 8.3681 33.7412C11.7208 37.105 16.2667 38.997 21.0082 39.0019Z" fill="#092A5E"/>
<path d="M21.0082 32.3712C20.5959 32.3712 20.2005 32.2069 19.909 31.9144C19.6175 31.6219 19.4537 31.2252 19.4537 30.8115V17.1602C19.4537 16.7465 19.6175 16.3498 19.909 16.0573C20.2005 15.7648 20.5959 15.6005 21.0082 15.6005C21.2125 15.6003 21.4147 15.6406 21.6034 15.7189C21.7921 15.7972 21.9636 15.9121 22.1081 16.057C22.2525 16.2018 22.3671 16.3738 22.4453 16.5631C22.5235 16.7524 22.5637 16.9553 22.5637 17.1602V30.8115C22.5637 31.0164 22.5235 31.2193 22.4453 31.4086C22.3671 31.5979 22.2525 31.7699 22.1081 31.9147C21.9636 32.0596 21.7921 32.1745 21.6034 32.2528C21.4147 32.3311 21.2125 32.3714 21.0082 32.3712Z" fill="#092A5E"/>
<path d="M21.0082 13.2597C20.5959 13.2597 20.2005 13.0954 19.909 12.8029C19.6174 12.5104 19.4537 12.1137 19.4537 11.7C19.4472 11.2654 19.6032 10.8442 19.891 10.5193C20.1787 10.1945 20.5773 9.98956 21.0082 9.94498C21.2015 9.92281 21.3973 9.94141 21.583 9.99956C21.7688 10.0577 21.9403 10.1541 22.0868 10.2827C22.2332 10.4112 22.3513 10.569 22.4334 10.746C22.5155 10.9229 22.5599 11.1151 22.5637 11.3103V11.7C22.5637 11.9049 22.5235 12.1078 22.4453 12.2971C22.3671 12.4864 22.2525 12.6584 22.1081 12.8032C21.9636 12.948 21.7921 13.0629 21.6034 13.1412C21.4147 13.2196 21.2124 13.2598 21.0082 13.2597Z" fill="#092A5E"/>
</svg>
