<svg width="54" height="49" viewBox="0 0 54 49" fill="none" xmlns="http://www.w3.org/2000/svg">
<path d="M27 0C21.3292 6.26498e-05 15.8024 1.73601 11.2034 4.96161C6.6045 8.18722 3.16691 12.7387 1.37826 17.9706C-0.41039 23.2024 -0.4593 28.849 1.23847 34.1093C2.93624 39.3697 6.29449 43.9769 10.8369 47.2773C12.1756 48.2428 13.7638 48.828 15.4245 48.9675C17.0852 49.107 18.7531 48.7955 20.2423 48.0675C21.7315 47.3396 22.9836 46.2239 23.859 44.8448C24.7343 43.4657 25.1986 41.8774 25.2 40.2568C25.1882 38.6955 24.8468 37.1532 24.1969 35.7254C23.5471 34.2976 22.6026 33.0148 21.422 31.9563C19.918 30.5749 19.022 28.6814 18.9218 26.6722C17.0632 26.0189 14.201 24.4938 13.5176 21.1717C13.494 21.0589 13.4935 20.9427 13.5162 20.8297C13.5389 20.7167 13.5843 20.6092 13.6499 20.5133C13.7154 20.4174 13.7997 20.3351 13.898 20.2709C13.9963 20.2068 14.1067 20.1621 14.2228 20.1395C14.3389 20.1169 14.4585 20.1168 14.5746 20.1392C14.6908 20.1616 14.8012 20.2061 14.8996 20.2701C14.9981 20.3341 15.0826 20.4163 15.1482 20.5121C15.2139 20.6079 15.2595 20.7153 15.2824 20.8282C15.5237 21.7429 15.9926 22.5858 16.6477 23.2829C17.3029 23.9799 18.1243 24.5097 19.0396 24.8256C19.257 23.6852 19.7303 22.6055 20.4257 21.6632C21.1211 20.7209 22.0216 19.9393 23.0631 19.3738C22.0626 18.8574 21.2285 18.0822 20.6527 17.1339C20.0768 16.1856 19.7818 15.1011 19.8 14C19.8 13.7679 19.8948 13.5454 20.0636 13.3813C20.2324 13.2172 20.4613 13.125 20.7 13.125C20.9387 13.125 21.1676 13.2172 21.3364 13.3813C21.5052 13.5454 21.6 13.7679 21.6 14C21.6 17.6162 25.5524 18.4529 25.6323 18.4962C26.5365 18.3346 27.4635 18.3346 28.3677 18.4962C28.4467 18.4533 32.4 17.5829 32.4 14C32.4 13.7679 32.4948 13.5454 32.6636 13.3813C32.8324 13.2172 33.0613 13.125 33.3 13.125C33.5387 13.125 33.7676 13.2172 33.9364 13.3813C34.1052 13.5454 34.2 13.7679 34.2 14C34.2182 15.1011 33.9232 16.1856 33.3473 17.1339C32.7715 18.0822 31.9374 18.8574 30.9369 19.3738C31.9784 19.9393 32.8789 20.7209 33.5743 21.6632C34.2697 22.6055 34.743 23.6852 34.9604 24.8256C35.8757 24.5097 36.6971 23.9799 37.3523 23.2829C38.0074 22.5858 38.4763 21.7429 38.7176 20.8282C38.7405 20.7153 38.7861 20.6079 38.8518 20.5121C38.9174 20.4163 39.0019 20.3341 39.1004 20.2701C39.1988 20.2061 39.3092 20.1616 39.4254 20.1392C39.5415 20.1168 39.6611 20.1169 39.7772 20.1395C39.8933 20.1621 40.0037 20.2068 40.102 20.2709C40.2003 20.3351 40.2846 20.4174 40.3501 20.5133C40.4157 20.6092 40.4611 20.7167 40.4838 20.8297C40.5065 20.9427 40.506 21.0589 40.4824 21.1717C39.799 24.4938 36.9368 26.0189 35.0782 26.6722C34.978 28.6814 34.0818 30.5751 32.5775 31.9563C31.3971 33.0148 30.4527 34.2977 29.803 35.7255C29.1532 37.1533 28.8118 38.6956 28.8 40.2568C28.8014 41.8774 29.2657 43.4657 30.141 44.8448C31.0164 46.2239 32.2685 47.3396 33.7577 48.0675C35.2469 48.7955 36.9148 49.107 38.5755 48.9675C40.2362 48.828 41.8244 48.2428 43.1631 47.2773C47.7055 43.9769 51.0638 39.3697 52.7615 34.1093C54.4593 28.849 54.4104 23.2024 52.6217 17.9706C50.8331 12.7387 47.3955 8.18722 42.7966 4.96161C38.1976 1.73601 32.6708 6.26498e-05 27 0Z" fill="#092A5E"/>
</svg>
