<svg width="90" height="71" viewBox="0 0 90 71" fill="none" xmlns="http://www.w3.org/2000/svg">
<path d="M90 4.684C90.0033 6.22844 89.7198 7.76006 89.164 9.201C88.5641 10.786 88.0611 12.406 87.658 14.052L71.6 64.907C70.708 67.5837 69.4253 69.2007 67.752 69.758C64.9623 70.4412 62.0893 70.7227 59.22 70.594C56.0973 70.594 54.034 70.2037 53.03 69.423C52.5698 69.104 52.1928 68.6792 51.9308 68.1844C51.6687 67.6895 51.5292 67.139 51.524 66.579C51.5371 65.5668 51.6493 64.5583 51.859 63.568C52.0823 62.4527 52.4157 61.003 52.859 59.219L64.569 7.026C64.7722 5.88205 65.2215 4.79593 65.8859 3.84281C66.5503 2.88969 67.414 2.09235 68.417 1.506C70.315 0.502001 73.606 0 78.29 0C82.7507 0 85.8173 0.446001 87.49 1.338C89.1627 2.23 89.9993 3.34534 90 4.684ZM38.476 4.684C38.4793 6.22844 38.1959 7.76006 37.64 9.201C37.0401 10.786 36.5371 12.406 36.134 14.052L20.074 64.907C19.182 67.5837 17.8993 69.2007 16.226 69.758C13.4363 70.4412 10.5633 70.7227 7.694 70.594C4.57133 70.594 2.508 70.2037 1.504 69.423C1.04428 69.1039 0.667783 68.6792 0.406092 68.1845C0.1444 67.6898 0.00514299 67.1396 0 66.58C0.0131216 65.5678 0.125324 64.5593 0.335 63.569C0.558333 62.4537 0.891667 61.004 1.335 59.22L13.045 7.027C13.2482 5.88305 13.6975 4.79693 14.3619 3.84381C15.0263 2.89069 15.89 2.09335 16.893 1.507C18.791 0.502333 22.082 0 26.766 0C31.2267 0 34.2933 0.446001 35.966 1.338C37.6387 2.23 38.4753 3.34534 38.476 4.684Z" fill="#C2E6FA"/>
</svg>
