<svg width="90" height="71" viewBox="0 0 90 71" fill="none" xmlns="http://www.w3.org/2000/svg">
<path d="M26.7656 0.5C28.9814 0.5 30.8382 0.610707 32.3398 0.829102C33.8473 1.04836 34.9672 1.37229 35.7305 1.7793C37.3168 2.62525 37.975 3.60347 37.9756 4.68457V4.68555C37.9787 6.16792 37.7073 7.63844 37.1738 9.02148L37.1729 9.02441C36.568 10.6225 36.0596 12.2555 35.6523 13.915L19.5996 64.749C18.7296 67.3597 17.5261 68.7909 16.0791 69.2783C13.3444 69.9452 10.5289 70.2208 7.7168 70.0947L7.70508 70.0938H7.69434C6.15069 70.0938 4.88759 69.9969 3.89746 69.8096C2.899 69.6207 2.22176 69.3481 1.81055 69.0283L1.7998 69.0195L1.78906 69.0127L1.64453 68.9053C1.31589 68.6466 1.04387 68.322 0.847656 67.9512C0.625143 67.5306 0.506196 67.0626 0.5 66.5869C0.512697 65.6074 0.621338 64.6312 0.824219 63.6729L0.825195 63.667C0.991096 62.8385 1.2186 61.8205 1.50879 60.6123L1.82031 59.3408L1.82324 59.3291L13.5332 7.13672L13.5352 7.12598L13.5371 7.11426C13.7276 6.0417 14.1495 5.02353 14.7725 4.12988C15.3927 3.24011 16.1976 2.49441 17.1328 1.94531C18.9144 1.00493 22.0939 0.500027 26.7656 0.5ZM78.29 0.5C80.5056 0.500002 82.3617 0.610735 83.8633 0.829102C85.371 1.04838 86.4915 1.37222 87.2549 1.7793C88.7418 2.57227 89.4135 3.48125 89.4922 4.48242L89.5 4.68457V4.68555C89.5031 6.16792 89.2308 7.63844 88.6973 9.02148L88.6963 9.02441C88.0895 10.6275 87.5797 12.2658 87.1719 13.9307L71.126 64.749C70.2558 67.3601 69.0518 68.7911 67.6045 69.2783C64.8698 69.9451 62.0542 70.2208 59.2422 70.0947L59.2314 70.0938H59.2197C57.6764 70.0937 56.4139 69.9968 55.4238 69.8096C54.4254 69.6207 53.7481 69.3481 53.3369 69.0283L53.3262 69.0195L53.3145 69.0117C52.9202 68.7383 52.5976 68.3742 52.373 67.9502C52.1502 67.5294 52.0307 67.0619 52.0244 66.5859C52.0371 65.6064 52.1457 64.6302 52.3486 63.6719L52.3496 63.666C52.5708 62.5614 52.9023 61.1202 53.3447 59.3398L53.3467 59.3281L65.0566 7.13574L65.0596 7.12402L65.0615 7.11328C65.252 6.04082 65.673 5.02249 66.2959 4.12891C66.9161 3.23924 67.7212 2.49342 68.6562 1.94434C70.4379 1.00441 73.6179 0.5 78.29 0.5Z" fill="white" stroke="white"/>
</svg>
