<svg width="37" height="52" viewBox="0 0 37 52" fill="none" xmlns="http://www.w3.org/2000/svg">
<path fill-rule="evenodd" clip-rule="evenodd" d="M11.6484 29.6431H32.517C34.9303 29.6431 36.9049 31.618 36.9049 34.031C36.9049 36.4439 34.93 38.419 32.517 38.419H11.6484C9.23534 38.419 7.2605 36.4444 7.2605 34.0311C7.2605 31.6178 9.23498 29.6431 11.6484 29.6431Z" fill="#092A5E"/>
<path fill-rule="evenodd" clip-rule="evenodd" d="M13.9838 39.3472L11.8892 48.1443C11.6596 49.109 11.8684 50.0337 12.4909 50.8107C13.1136 51.5875 13.9767 52.0001 14.9795 52.0001H29.1856C30.1885 52.0001 31.0517 51.5876 31.6744 50.8107C32.2969 50.0338 32.5057 49.1091 32.2759 48.1443L30.1814 39.3472H13.9838Z" fill="#092A5E"/>
<path fill-rule="evenodd" clip-rule="evenodd" d="M12.1747 16.4961H27.4347C28.4151 16.4961 29.2172 17.2982 29.2172 18.2786V20.0612H13.1343L15.4574 28.7143H11.6483C9.71341 28.7143 8.01302 29.76 7.08288 31.3143C6.56815 29.4219 6.07741 27.6482 5.5502 25.6807L1.5295 10.6749L0.973019 8.59837L0.149038 5.52305C-0.475455 3.1923 0.920598 0.773734 3.25171 0.14912C5.58283 -0.475613 8.00115 0.92068 8.62576 3.25167L8.77439 3.80635L10.7645 11.2336L11.1544 12.6886L12.1747 16.4961Z" fill="#092A5E"/>
<path fill-rule="evenodd" clip-rule="evenodd" d="M12.1136 12.6803C13.3067 12.3501 14.1226 11.5016 13.9306 10.7847L12.2551 4.5318C12.063 3.8147 10.9322 3.48794 9.73364 3.79851L12.1136 12.6803Z" fill="#092A5E"/>
</svg>
