<svg width="0" height="0" class="hidden">
<symbol fill="none" xmlns="http://www.w3.org/2000/svg" viewBox="0 0 54 49" id="tui-vector-nackenkissen">
  <path d="M27 0C21.3292 6.26498e-05 15.8024 1.73601 11.2034 4.96161C6.6045 8.18722 3.16691 12.7387 1.37826 17.9706C-0.41039 23.2024 -0.4593 28.849 1.23847 34.1093C2.93624 39.3697 6.29449 43.9769 10.8369 47.2773C12.1756 48.2428 13.7638 48.828 15.4245 48.9675C17.0852 49.107 18.7531 48.7955 20.2423 48.0675C21.7315 47.3396 22.9836 46.2239 23.859 44.8448C24.7343 43.4657 25.1986 41.8774 25.2 40.2568C25.1882 38.6955 24.8468 37.1532 24.1969 35.7254C23.5471 34.2976 22.6026 33.0148 21.422 31.9563C19.918 30.5749 19.022 28.6814 18.9218 26.6722C17.0632 26.0189 14.201 24.4938 13.5176 21.1717C13.494 21.0589 13.4935 20.9427 13.5162 20.8297C13.5389 20.7167 13.5843 20.6092 13.6499 20.5133C13.7154 20.4174 13.7997 20.3351 13.898 20.2709C13.9963 20.2068 14.1067 20.1621 14.2228 20.1395C14.3389 20.1169 14.4585 20.1168 14.5746 20.1392C14.6908 20.1616 14.8012 20.2061 14.8996 20.2701C14.9981 20.3341 15.0826 20.4163 15.1482 20.5121C15.2139 20.6079 15.2595 20.7153 15.2824 20.8282C15.5237 21.7429 15.9926 22.5858 16.6477 23.2829C17.3029 23.9799 18.1243 24.5097 19.0396 24.8256C19.257 23.6852 19.7303 22.6055 20.4257 21.6632C21.1211 20.7209 22.0216 19.9393 23.0631 19.3738C22.0626 18.8574 21.2285 18.0822 20.6527 17.1339C20.0768 16.1856 19.7818 15.1011 19.8 14C19.8 13.7679 19.8948 13.5454 20.0636 13.3813C20.2324 13.2172 20.4613 13.125 20.7 13.125C20.9387 13.125 21.1676 13.2172 21.3364 13.3813C21.5052 13.5454 21.6 13.7679 21.6 14C21.6 17.6162 25.5524 18.4529 25.6323 18.4962C26.5365 18.3346 27.4635 18.3346 28.3677 18.4962C28.4467 18.4533 32.4 17.5829 32.4 14C32.4 13.7679 32.4948 13.5454 32.6636 13.3813C32.8324 13.2172 33.0613 13.125 33.3 13.125C33.5387 13.125 33.7676 13.2172 33.9364 13.3813C34.1052 13.5454 34.2 13.7679 34.2 14C34.2182 15.1011 33.9232 16.1856 33.3473 17.1339C32.7715 18.0822 31.9374 18.8574 30.9369 19.3738C31.9784 19.9393 32.8789 20.7209 33.5743 21.6632C34.2697 22.6055 34.743 23.6852 34.9604 24.8256C35.8757 24.5097 36.6971 23.9799 37.3523 23.2829C38.0074 22.5858 38.4763 21.7429 38.7176 20.8282C38.7405 20.7153 38.7861 20.6079 38.8518 20.5121C38.9174 20.4163 39.0019 20.3341 39.1004 20.2701C39.1988 20.2061 39.3092 20.1616 39.4254 20.1392C39.5415 20.1168 39.6611 20.1169 39.7772 20.1395C39.8933 20.1621 40.0037 20.2068 40.102 20.2709C40.2003 20.3351 40.2846 20.4174 40.3501 20.5133C40.4157 20.6092 40.4611 20.7167 40.4838 20.8297C40.5065 20.9427 40.506 21.0589 40.4824 21.1717C39.799 24.4938 36.9368 26.0189 35.0782 26.6722C34.978 28.6814 34.0818 30.5751 32.5775 31.9563C31.3971 33.0148 30.4527 34.2977 29.803 35.7255C29.1532 37.1533 28.8118 38.6956 28.8 40.2568C28.8014 41.8774 29.2657 43.4657 30.141 44.8448C31.0164 46.2239 32.2685 47.3396 33.7577 48.0675C35.2469 48.7955 36.9148 49.107 38.5755 48.9675C40.2362 48.828 41.8244 48.2428 43.1631 47.2773C47.7055 43.9769 51.0638 39.3697 52.7615 34.1093C54.4593 28.849 54.4104 23.2024 52.6217 17.9706C50.8331 12.7387 47.3955 8.18722 42.7966 4.96161C38.1976 1.73601 32.6708 6.26498e-05 27 0Z" fill="#092A5E"></path>
</symbol>
<symbol fill="none" xmlns="http://www.w3.org/2000/svg" viewBox="0 0 37 52" id="tui-vector-sitz">
  <path fill-rule="evenodd" clip-rule="evenodd" d="M11.6484 29.6431H32.517C34.9303 29.6431 36.9049 31.618 36.9049 34.031C36.9049 36.4439 34.93 38.419 32.517 38.419H11.6484C9.23534 38.419 7.2605 36.4444 7.2605 34.0311C7.2605 31.6178 9.23498 29.6431 11.6484 29.6431Z" fill="#092A5E"></path>
  <path fill-rule="evenodd" clip-rule="evenodd" d="M13.9838 39.3472L11.8892 48.1443C11.6596 49.109 11.8684 50.0337 12.4909 50.8107C13.1136 51.5875 13.9767 52.0001 14.9795 52.0001H29.1856C30.1885 52.0001 31.0517 51.5876 31.6744 50.8107C32.2969 50.0338 32.5057 49.1091 32.2759 48.1443L30.1814 39.3472H13.9838Z" fill="#092A5E"></path>
  <path fill-rule="evenodd" clip-rule="evenodd" d="M12.1747 16.4961H27.4347C28.4151 16.4961 29.2172 17.2982 29.2172 18.2786V20.0612H13.1343L15.4574 28.7143H11.6483C9.71341 28.7143 8.01302 29.76 7.08288 31.3143C6.56815 29.4219 6.07741 27.6482 5.5502 25.6807L1.5295 10.6749L0.973019 8.59837L0.149038 5.52305C-0.475455 3.1923 0.920598 0.773734 3.25171 0.14912C5.58283 -0.475613 8.00115 0.92068 8.62576 3.25167L8.77439 3.80635L10.7645 11.2336L11.1544 12.6886L12.1747 16.4961Z" fill="#092A5E"></path>
  <path fill-rule="evenodd" clip-rule="evenodd" d="M12.1136 12.6803C13.3067 12.3501 14.1226 11.5016 13.9306 10.7847L12.2551 4.5318C12.063 3.8147 10.9322 3.48794 9.73364 3.79851L12.1136 12.6803Z" fill="#092A5E"></path>
</symbol>
<symbol fill="none" xmlns="http://www.w3.org/2000/svg" viewBox="0 0 50 50" id="tui-vektor-kopfhoerer">
  <path d="M50 24.9936C49.9712 28.9994 49.4633 32.9874 48.4872 36.8726C48.4692 36.9572 48.4718 37.0392 48.4513 37.1289C48.4051 37.3135 48.341 37.4904 48.2923 37.675C48.2231 37.9518 48.1333 38.2184 48.059 38.4927C47.818 39.372 47.5897 40.2563 47.3077 41.1074L46.1 45.0192C45.6529 46.4585 44.7575 47.7173 43.5443 48.6119C42.3312 49.5065 40.8639 49.9902 39.3564 49.9923C38.661 49.9922 37.9695 49.8876 37.3051 49.6821L34.8282 48.9131C34.2643 48.7412 33.7398 48.4598 33.2848 48.085C32.8299 47.7102 32.4533 47.2493 32.1768 46.7287C31.9003 46.2082 31.7292 45.6382 31.6733 45.0515C31.6175 44.4648 31.6779 43.8728 31.8513 43.3094L35.6564 30.8664C35.8289 30.3028 36.1108 29.7786 36.4861 29.3239C36.8613 28.8692 37.3225 28.4929 37.8433 28.2165C38.3641 27.9401 38.9343 27.769 39.5212 27.713C40.1082 27.6571 40.7004 27.7173 41.2641 27.8903L43.6795 28.6311C44.4681 28.8775 45.2062 29.2629 45.859 29.7693C46.0447 28.184 46.1431 26.5897 46.1538 24.9936C46.1538 19.3847 43.9251 14.0055 39.958 10.0394C35.9909 6.0733 30.6103 3.84517 25 3.84517C19.3897 3.84517 14.0091 6.0733 10.042 10.0394C6.07486 14.0055 3.84615 19.3847 3.84615 24.9936C3.85749 26.5914 3.95678 28.1875 4.14359 29.7744C4.79702 29.2691 5.53495 28.8837 6.32308 28.6362L8.73846 27.898C9.30196 27.7249 9.89405 27.6646 10.4809 27.7204C11.0677 27.7762 11.6378 27.9471 12.1586 28.2232C12.6793 28.4993 13.1406 28.8754 13.5159 29.3298C13.8913 29.7842 14.1734 30.3081 14.3462 30.8716L18.1513 43.3197C18.3245 43.883 18.3849 44.475 18.3288 45.0617C18.2728 45.6484 18.1014 46.2182 17.8246 46.7386C17.5478 47.259 17.171 47.7196 16.7158 48.094C16.2605 48.4685 15.7359 48.7495 15.1718 48.9208L12.6974 49.6898C12.0331 49.8953 11.3416 49.9999 10.6462 50C9.13869 49.9979 7.67136 49.5142 6.45823 48.6196C5.2451 47.725 4.34966 46.4662 3.90256 45.0269L2.69231 41.0843C2.41026 40.2461 2.17949 39.3489 1.92308 38.4594C1.85128 38.203 1.7641 37.9467 1.69487 37.6673C1.64872 37.4827 1.58462 37.3109 1.53846 37.1238C1.51795 37.0392 1.52051 36.9572 1.50256 36.8675C0.53028 32.9835 0.0258473 28.9973 0 24.9936C9.88008e-08 18.3649 2.63392 12.0077 7.32233 7.32045C12.0107 2.63325 18.3696 0 25 0C31.6304 0 37.9893 2.63325 42.6777 7.32045C47.3661 12.0077 50 18.3649 50 24.9936Z" fill="#092A5E"></path>
</symbol>
<symbol xmlns="http://www.w3.org/2000/svg" viewBox="0 0 90 71" id="tui-icon-zitat-anfang">
  <path d="M89.5 4.68425V4.68508C89.5032 6.16761 89.2311 7.63785 88.6975 9.02104L88.6964 9.024C88.0912 10.6228 87.5836 12.2568 87.1763 13.9171L71.1256 64.7489C71.1252 64.7503 71.1247 64.7516 71.1243 64.753C70.2558 67.3568 69.0558 68.7878 67.6127 69.2773C64.8756 69.9456 62.0572 70.2207 59.2424 70.0945L59.2312 70.094H59.22C57.6764 70.094 56.4136 69.9973 55.4234 69.81C54.425 69.6211 53.7481 69.348 53.3369 69.0283L53.3261 69.0199L53.3148 69.0121C52.9204 68.7386 52.5972 68.3745 52.3726 67.9504C52.1489 67.5278 52.0294 67.0579 52.024 66.5798C52.0371 65.6021 52.1456 64.6281 52.3482 63.6716L52.3482 63.6716L52.3493 63.6662C52.5705 62.5615 52.9018 61.1201 53.3442 59.3396L53.3444 59.3396L53.3469 59.3285L65.0569 7.13546L65.0593 7.1245L65.0613 7.11343C65.2518 6.04082 65.6731 5.02242 66.2961 4.12874C66.917 3.23798 67.7236 2.49234 68.6601 1.94306C70.4424 1.00434 73.6209 0.5 78.29 0.5C80.5057 0.5 82.3619 0.610901 83.8635 0.829295C85.3713 1.04857 86.4914 1.37211 87.2547 1.77919C88.841 2.62514 89.4995 3.60316 89.5 4.68425ZM37.976 4.68425V4.68508C37.9792 6.16761 37.7071 7.63785 37.1735 9.02104L37.1724 9.024C36.5672 10.6228 36.0596 12.2568 35.6523 13.917L19.5996 64.7489C19.5992 64.7501 19.5988 64.7514 19.5984 64.7526C18.7299 67.3567 17.5299 68.7878 16.0867 69.2773C13.3496 69.9456 10.5312 70.2207 7.7164 70.0945L7.7052 70.094H7.694C6.15035 70.094 4.88757 69.9973 3.89744 69.81C2.89895 69.6211 2.22214 69.348 1.81092 69.0283L1.80024 69.02L1.78912 69.0123C1.39508 68.7387 1.07237 68.3747 0.848058 67.9507C0.624587 67.5283 0.50528 67.0586 0.500033 66.5808C0.513079 65.6031 0.621635 64.6291 0.824156 63.6726L0.824186 63.6726L0.825268 63.6672C1.04647 62.5625 1.37778 61.1211 1.82024 59.3406L1.82037 59.3406L1.82287 59.3295L13.5329 7.13646L13.5353 7.12549L13.5373 7.11443C13.7278 6.04182 14.1491 5.02342 14.7721 4.12974C15.3931 3.23895 16.1996 2.49329 17.1362 1.94401C18.9185 1.00467 22.0969 0.5 26.766 0.5C28.9817 0.5 30.8379 0.610901 32.3395 0.829295C33.8473 1.04857 34.9674 1.37211 35.7307 1.77919C37.317 2.62514 37.9755 3.60316 37.976 4.68425Z"></path>
</symbol>
<symbol xmlns="http://www.w3.org/2000/svg" viewBox="0 0 90 71" id="tui-icon-zitat-ende">
  <path d="M89.1758 6.95239L89.1747 6.9578C88.9535 8.0625 88.6222 9.5039 88.1797 11.2844L88.1796 11.2844L88.1771 11.2955L76.4671 63.4885L76.4646 63.4995L76.4626 63.5105C76.2721 64.5832 75.8508 65.6016 75.2278 66.4952C74.6069 67.386 73.8003 68.1317 72.8637 68.681C71.0835 69.6196 67.9062 70.124 63.2369 70.124C61.0212 70.124 59.1651 70.0131 57.6634 69.7947C56.1557 69.5754 55.0356 69.2519 54.2722 68.8448C52.6859 67.9989 52.0279 67.0209 52.0279 65.94V65.9389C52.0247 64.4564 52.2969 62.9861 52.8304 61.6029L52.8316 61.6C53.4367 60.0012 53.9443 58.3672 54.3517 56.7069L70.4033 5.87506C70.4037 5.87378 70.4041 5.87249 70.4046 5.87121C71.273 3.26725 72.473 1.83618 73.9162 1.34666C76.6504 0.679242 79.4658 0.404076 82.2777 0.529475L82.2888 0.529971H82.2999C83.8436 0.529971 85.1064 0.626704 86.0965 0.814018C87.095 1.00291 87.7718 1.27596 88.183 1.59571L88.1941 1.60434L88.2057 1.61233C88.6008 1.88538 88.9246 2.2493 89.1498 2.6735C89.3742 3.09613 89.4942 3.56628 89.4999 4.0447C89.4868 5.02218 89.3783 5.99603 89.1758 6.95239ZM37.6518 6.9524L37.6518 6.9524L37.6507 6.9578C37.4295 8.0625 37.0982 9.5039 36.6557 11.2844L36.6556 11.2844L36.6531 11.2955L24.9431 63.4885L24.9406 63.4995L24.9386 63.5106C24.7481 64.5832 24.3268 65.6016 23.7038 66.4952C23.0829 67.386 22.2763 68.1317 21.3397 68.681C19.5595 69.6196 16.3822 70.124 11.7129 70.124C9.4972 70.124 7.64106 70.0131 6.1394 69.7947C4.63168 69.5754 3.51155 69.2519 2.74821 68.8448C1.16192 67.9989 0.503935 67.0209 0.503936 65.94L0.503934 65.9389C0.500746 64.4564 0.772862 62.9861 1.30645 61.6029L1.30756 61.6C1.91272 60.0012 2.42035 58.3671 2.82767 56.7069L18.8755 5.87238C19.744 3.2683 20.944 1.83717 22.3872 1.34766C25.1244 0.679398 27.9427 0.404235 30.7575 0.530476L30.7687 0.530979H30.7799C32.3236 0.530979 33.5864 0.627703 34.5765 0.81501C35.575 1.0039 36.2518 1.27694 36.663 1.59669L36.6738 1.6051L36.6851 1.61291C37.0795 1.88625 37.4025 2.25022 37.6271 2.67424C37.8509 3.09665 37.9705 3.56639 37.9759 4.04432C37.9629 5.02192 37.8543 5.99591 37.6518 6.9524Z"></path>
</symbol>
</svg>