<svg width="50" height="50" viewBox="0 0 50 50" fill="none" xmlns="http://www.w3.org/2000/svg">
<path d="M50 24.9936C49.9712 28.9994 49.4633 32.9874 48.4872 36.8726C48.4692 36.9572 48.4718 37.0392 48.4513 37.1289C48.4051 37.3135 48.341 37.4904 48.2923 37.675C48.2231 37.9518 48.1333 38.2184 48.059 38.4927C47.818 39.372 47.5897 40.2563 47.3077 41.1074L46.1 45.0192C45.6529 46.4585 44.7575 47.7173 43.5443 48.6119C42.3312 49.5065 40.8639 49.9902 39.3564 49.9923C38.661 49.9922 37.9695 49.8876 37.3051 49.6821L34.8282 48.9131C34.2643 48.7412 33.7398 48.4598 33.2848 48.085C32.8299 47.7102 32.4533 47.2493 32.1768 46.7287C31.9003 46.2082 31.7292 45.6382 31.6733 45.0515C31.6175 44.4648 31.6779 43.8728 31.8513 43.3094L35.6564 30.8664C35.8289 30.3028 36.1108 29.7786 36.4861 29.3239C36.8613 28.8692 37.3225 28.4929 37.8433 28.2165C38.3641 27.9401 38.9343 27.769 39.5212 27.713C40.1082 27.6571 40.7004 27.7173 41.2641 27.8903L43.6795 28.6311C44.4681 28.8775 45.2062 29.2629 45.859 29.7693C46.0447 28.184 46.1431 26.5897 46.1538 24.9936C46.1538 19.3847 43.9251 14.0055 39.958 10.0394C35.9909 6.0733 30.6103 3.84517 25 3.84517C19.3897 3.84517 14.0091 6.0733 10.042 10.0394C6.07486 14.0055 3.84615 19.3847 3.84615 24.9936C3.85749 26.5914 3.95678 28.1875 4.14359 29.7744C4.79702 29.2691 5.53495 28.8837 6.32308 28.6362L8.73846 27.898C9.30196 27.7249 9.89405 27.6646 10.4809 27.7204C11.0677 27.7762 11.6378 27.9471 12.1586 28.2232C12.6793 28.4993 13.1406 28.8754 13.5159 29.3298C13.8913 29.7842 14.1734 30.3081 14.3462 30.8716L18.1513 43.3197C18.3245 43.883 18.3849 44.475 18.3288 45.0617C18.2728 45.6484 18.1014 46.2182 17.8246 46.7386C17.5478 47.259 17.171 47.7196 16.7158 48.094C16.2605 48.4685 15.7359 48.7495 15.1718 48.9208L12.6974 49.6898C12.0331 49.8953 11.3416 49.9999 10.6462 50C9.13869 49.9979 7.67136 49.5142 6.45823 48.6196C5.2451 47.725 4.34966 46.4662 3.90256 45.0269L2.69231 41.0843C2.41026 40.2461 2.17949 39.3489 1.92308 38.4594C1.85128 38.203 1.7641 37.9467 1.69487 37.6673C1.64872 37.4827 1.58462 37.3109 1.53846 37.1238C1.51795 37.0392 1.52051 36.9572 1.50256 36.8675C0.53028 32.9835 0.0258473 28.9973 0 24.9936C9.88008e-08 18.3649 2.63392 12.0077 7.32233 7.32045C12.0107 2.63325 18.3696 0 25 0C31.6304 0 37.9893 2.63325 42.6777 7.32045C47.3661 12.0077 50 18.3649 50 24.9936Z" fill="#092A5E"/>
</svg>
