<?xml version="1.0" encoding="UTF-8" standalone="no"?>
<svg
   viewBox="0 0 832.09871 312.40893"
   fill="none"
   version="1.1"
   id="svg60"
   sodipodi:docname="tui-vector-wolke.svg"
   inkscape:version="1.4.2 (ebf0e940, 2025-05-08)"
   xmlns:inkscape="http://www.inkscape.org/namespaces/inkscape"
   xmlns:sodipodi="http://sodipodi.sourceforge.net/DTD/sodipodi-0.dtd"
   xmlns="http://www.w3.org/2000/svg"
   xmlns:svg="http://www.w3.org/2000/svg">
  <sodipodi:namedview
     id="namedview60"
     pagecolor="#ffffff"
     bordercolor="#000000"
     borderopacity="0.25"
     inkscape:showpageshadow="2"
     inkscape:pageopacity="0.0"
     inkscape:pagecheckerboard="0"
     inkscape:deskcolor="#d1d1d1"
     inkscape:zoom="0.97767333"
     inkscape:cx="425.5"
     inkscape:cy="157.51683"
     inkscape:window-width="1920"
     inkscape:window-height="1027"
     inkscape:window-x="1496"
     inkscape:window-y="25"
     inkscape:window-maximized="1"
     inkscape:current-layer="svg60" />
  <path
     d="m 68.1717,103.328 c 8.2581,1.485 14.1981,7.975 16.4196,14.851 2.1973,6.856 1.4004,14.119 0.8451,21.871 14.1015,16.153 13.691,65.346 -5.6744,79.506 0.4829,8.402 0.3622,16.845 -0.3864,25.227 -0.507,5.636 -2.4146,12.431 -8.8617,13.957 -1.4246,0.325 -2.8975,0.345 -4.3222,0.061 -2.0524,-0.346 -4.0083,-1.262 -5.5537,-2.503 -0.2414,-0.183 -0.4829,-0.407 -0.7002,-0.61 -2.632,-2.462 -3.9359,-5.758 -4.5878,-9.013 -0.6278,-2.97 -0.5795,-6.449 2.0283,-8.504 -2.149,-0.122 -4.2981,-0.427 -6.3988,-0.875 -9.9,-2.054 -18.8825,-7.466 -22.8666,-15.319 -4.8052,-9.501 -0.4105,-22.196 11.0831,-26.936 -8.5961,1.627 -17.9166,-0.814 -24.6776,-5.595 C 7.78159,184.665 3.43524,177.748 1.35865,170.526 -1.56306,160.394 0.0788942,148.981 7.7333,140.782 c 3.3322,-3.56 7.9442,-6.327 13.1839,-8.036 6.7852,-2.197 14.6327,-2.624 22.2147,-0.671 -1.6178,-6.918 -0.8693,-14.465 3.6461,-20.406 2.7527,-3.621 7.0508,-6.49 11.8559,-7.812 0.2656,-0.082 0.5312,-0.143 0.7968,-0.204 2.8251,-0.712 5.8193,-0.874 8.741,-0.325 z"
     fill="#fefffe"
     id="path1" />
  <path
     d="m 83.6739,183.994 c -0.6761,4.13 -1.1107,5.839 -1.6178,10.396 -0.1208,0.142 -0.0242,0.386 0,0.57 0,0.04 0,0.081 0,0.122 0,0 0,0.02 0,0.04 0,0.102 0,0.204 0.0241,0.326 1.3281,2.095 3.2115,0.101 3.4288,-1.587 1.6178,-5.33 1.1108,-10.986 -0.7002,-16.235 -0.3864,1.892 -1.0142,5.432 -1.1108,6.388 z"
     fill="#fefffe"
     id="path2" />
  <path
     d="m 78.3134,183.933 c 1.2073,-3.337 0.6036,-6.938 -1.0866,-10.091 -0.4829,3.397 0.1207,6.795 1.0866,10.091 z"
     fill="#fefffe"
     id="path3" />
  <path
     d="m 84.8811,166.904 c 0.3139,-4.76 -1.3039,-9.439 -4.2015,-13.508 0.0483,4.801 1.5695,9.256 4.2015,13.508 z"
     fill="#fefffe"
     id="path4" />
  <path
     d="M 45.0002,116 H 733 V 265 L 58.0871,253.5 Z"
     fill="#ffffff"
     id="path5" />
  <path
     d="m 727.932,254.759 c -8.46,-1.102 -15.57,-6.46 -16.334,-11.034 -11.927,-4.557 -20.183,-12.969 -21.559,-21.966 -1.376,-8.981 4.179,-18.312 14.474,-24.321 -14.907,-2.704 -22.119,-13.954 -23.291,-24.053 -0.688,-6.042 0.102,-12.319 4.128,-17.794 3.44,-4.707 9.582,-8.746 17.074,-10.399 -0.79,-1.619 -1.351,-3.288 -1.759,-4.907 -3.185,-12.269 -2.013,-25.656 8.461,-36.038 2.038,-2.02 4.587,-3.99 8.052,-4.8078 2.88,-0.6844 6.116,-0.5008 9.047,0.0835 6.677,1.3523 11.901,4.7573 15.06,8.8803 1.402,1.869 2.396,3.889 2.906,5.926 0.637,2.603 0.586,5.241 0,7.845 14.296,-4.223 31.497,-3.973 45.589,0.551 2.166,0.684 4.281,1.485 6.294,2.387 16.055,7.227 25.101,20.614 22.476,33.267 -2.624,12.636 -16.793,23.953 -35.217,28.109 13.939,0.802 21.253,11.535 21.507,20.698 0.255,8.246 -3.185,16.91 -12.155,22.702 -3.262,2.12 -7.39,3.722 -11.799,4.673 -7.619,1.653 -16.156,1.319 -22.654,-1.702 0.178,5.658 -2.013,11.501 -7.441,15.891 -0.79,0.634 -1.657,1.252 -2.6,1.819 -1.732,1.035 -3.669,1.936 -5.759,2.637 -4.459,1.536 -9.581,2.187 -14.525,1.553 z"
     fill="#fefffe"
     id="path6" />
  <path
     d="m 766.714,188.084 c -0.218,-3.795 -1.277,-7.446 -1.868,-11.177 -1.76,5.708 -1.199,12.723 2.568,17.474 -0.529,-2.073 -0.514,-4.065 -0.7,-6.297 z"
     fill="#fefffe"
     id="path7" />
  <path
     d="m 776.396,195.975 c -0.794,-4.065 -1.993,-7.126 -3.814,-10.634 -0.093,4.528 1.136,9.056 3.907,12.627 0.779,1.276 -0.062,-1.403 -0.093,-1.977 z"
     fill="#fefffe"
     id="path8" />
  <path
     d="m 802.286,154.349 c -12.15,12.627 -29.242,12.896 -56.242,10.955 -4.387,7.149 -12.632,12.492 -21.744,15.797 -9.089,3.306 -19.069,4.786 -28.953,5.881 -16.971,1.865 -34.448,2.672 -51.396,1.077 -7.304,7.802 -20.683,11.954 -32.978,10.474 -6.195,-0.731 -12.005,-2.729 -17.092,-5.651 -43.296,18.988 -111.567,6.765 -153.079,-8.975 -5.568,4.344 -12.343,7.784 -19.285,10.686 -32.882,13.549 -73.189,15.125 -107.565,4.209 -10.632,-3.383 -21.046,-8.264 -29.339,-14.587 -14.247,8.475 -32.303,13.011 -50.19,14.548 -39.921,3.479 -81.409,-6.803 -111.808,-27.713 -6.316,-4.343 -12.439,-9.494 -14.223,-15.99 -0.073,-0.307 -0.145,-0.634 -0.217,-0.942 -15.4528,-0.711 -30.8089,-2.69 -45.7552,-5.938 -7.7866,-1.691 -16.8749,-5.055 -17.4052,-11.493 -0.0965,-1.441 0.2892,-2.863 1.0607,-4.132 1.133,-1.922 3.1098,-3.575 5.424,-4.747 1.0366,-0.557 2.1697,-0.999 3.3268,-1.364 5.3758,-1.596 11.3785,-1.307 17.1159,-1 -2.0491,-6.842 2.9411,-14.106 10.1731,-18.181 2.9411,-1.672 6.1714,-2.921 9.5946,-3.805 4.9419,-1.384 10.2213,-2.076 15.4043,-2.594 15.284,-1.4418 32.207,-0.8845 44.019,7.014 10.246,-21.1209 31.243,-34.0935 53.928,-36.5343 22.684,-2.46 46.116,4.92 62.436,17.7196 2.676,2.1333 5.208,4.4203 7.401,6.8995 2.098,-0.9609 4.291,-1.7873 6.533,-2.5176 15.694,-5.0738 34.979,-4.3435 48.142,4.132 7.81,5.0548 12.728,12.1458 16.609,19.6218 0.7,0.596 -7.328,-42.2998 43.851,-58.7126 22.034,-7.0724 47.732,-4.5548 68.078,5.1699 17.719,-15.99 42.693,-26.5218 69.042,-28.3668 39.295,-2.729 79.698,14.0489 99.417,41.2817 7.039,-3.6708 16.706,-3.1327 24.662,0.1537 7.931,3.2864 14.03,9.3211 16.416,16.2014 13.621,-9.5133 32.69,-9.6478 47.178,-2.9597 3.278,1.5183 6.292,3.4017 8.968,5.5157 9.184,7.2267 14.681,17.4887 14.295,27.8097 13.524,-8.726 33.581,-10.186 48.985,-3.902 1.133,0.462 2.266,0.961 3.351,1.519 3.785,1.902 7.232,4.324 9.98,7.13 2.267,2.325 4.099,4.92 5.232,7.726 2.555,6.188 1.567,13.414 -3.375,18.603 z"
     fill="#fefffe"
     id="path9" />
  <path
     d="m 620.673,170.658 c 9.44,3.437 20.485,2.688 29.681,-0.902 -9.926,-0.576 -19.803,0.153 -29.681,0.902 z"
     fill="#fefffe"
     id="path10" />
  <path
     d="m 616.805,161.845 c -7.639,-1.805 -13.721,-2.074 -21.433,-2.842 7.104,4.128 16.324,5.357 24.936,4.205 3.26,-0.192 -2.287,-0.96 -3.503,-1.363 z"
     fill="#fefffe"
     id="path11" />
  <path
     d="m 650.962,160.213 c -5.109,-0.116 -10.145,0.691 -15.156,1.42 5.546,1.479 11.531,1.095 16.883,-0.652 3.844,-1.037 0,-0.615 -1.727,-0.768 z"
     fill="#fefffe"
     id="path12" />
  <path
     d="m 221.566,181.641 c -7.372,-0.365 -14.719,0.25 -22.09,0.154 12.772,5.069 30.021,6.835 42.282,0.019 -6.666,0.902 -13.478,0.115 -20.192,-0.173 z"
     fill="#fefffe"
     id="path13" />
  <path
     d="m 185.803,173.749 c 6.35,2.381 13.77,2.458 20.436,0.941 -6.763,-1.363 -13.089,-1.478 -20.436,-0.941 z"
     fill="#fefffe"
     id="path14" />
  <path
     d="m 402.667,185.232 c -5.766,0.384 -13.6,2.342 -20.071,4.051 8.807,1.364 18.003,-0.441 25.472,-4.262 1.776,-0.711 -4.453,0.192 -5.401,0.211 z"
     fill="#fefffe"
     id="path15" />
  <g
     clip-path="url(#clip0_4035_6078)"
     id="g42">
    <path
       d="m 198.91,75.08 c -0.67,1.46 -2.1,2.41 -3.52,3.15 -8.11,4.27 -18.2,4.55 -26.54,0.73 -10.9,6.35 -25.29,6.18 -36.41,-1.43 -3.83,1.17 -7.79,2.36 -11.78,1.93 -3.98,-0.43 -8.03,-2.91 -9.01,-6.8 -0.53,-2.12 -0.07,-4.29 0.99,-6.21 0.46,-0.83 1.03,-1.62 1.68,-2.32 0.58,-0.63 1.22,-1.2 1.91,-1.69 3.35,-2.41 7.72,-3.36 11.77,-2.55 0.04,-1.33 0.2,-2.65 0.48,-3.94 1.91,-8.8 9.2,-16.44 18.13,-17.76 10.24,-1.52 21.18,6.19 22.49,16.46 4.08,-1.92 9.15,-1.54 12.89,0.98 0.73,0.49 1.4,1.06 2,1.69 2.5,2.6 3.83,6.25 3.1,9.85 2.88,-0.21 5.91,-0.39 8.51,0.85 0.71,0.34 1.38,0.83 1.94,1.42 0.49,0.51 0.9,1.09 1.2,1.71 0.6,1.25 0.75,2.66 0.17,3.93 z"
       fill="#fefffe"
       id="path16" />
    <path
       d="m 198.91,75.08 c -0.67,1.46 -2.1,2.41 -3.52,3.15 -8.11,4.27 -18.2,4.55 -26.54,0.73 -10.9,6.35 -25.29,6.18 -36.41,-1.43 -3.83,1.17 -7.79,2.36 -11.78,1.93 -3.98,-0.43 -8.03,-2.91 -9.01,-6.8 -0.53,-2.12 -0.07,-4.29 0.99,-6.21 0.46,-0.83 1.03,-1.62 1.68,-2.32 6.27,3.85 15.66,1.93 19.6,-4.39 3.74,3.84 8.56,6.86 13.88,7.47 5.33,0.61 11.13,-1.55 13.97,-6.1 2.64,8.35 11.33,13.72 20.03,14.67 3.35,0.36 6.82,0.17 9.91,-1.16 2.43,-1.05 4.6,-2.87 5.83,-5.18 0.49,0.51 0.9,1.09 1.2,1.71 0.6,1.25 0.75,2.66 0.17,3.93 z"
       fill="#fefffe"
       id="path17" />
    <path
       d="m 148.98,77.03 c -2.52,-0.48 -5.07,-0.82 -7.59,-1.31 4,3.22 10.09,4.92 14.75,2.18 -2.41,0.22 -4.8,-0.51 -7.17,-0.87 z"
       fill="#fefffe"
       id="path18" />
    <path
       d="m 149.76,72.53 c 3.24,2.17 7.46,1.98 11.01,0.69 -3.59,-0.69 -7.13,-0.48 -11.01,-0.69 z"
       fill="#fefffe"
       id="path19" />
    <path
       d="m 185.99,102.11 c 0.03,0.31 0.03,0.62 0,0.91 -0.28,2.74 -3.2,4.78 -5.95,5.69 -6.29,2.1 -13.46,1.38 -19.2,-1.93 -1,3.25 -4.9,4.45 -8.22,5.14 -8.28,1.69 -17.69,3.01 -24.5,-2 -3.18,1.39 -6.47,1.7 -9.51,1.78 -3.27,0.11 -6.57,0.07 -9.77,-0.59 -3.2,-0.66 -6.34,-1.99 -8.74,-4.2 -9.31,6.2 -41.05,3.67 -42.78,-0.49 -2.04,-0.07 -3.71,0.31 -5.41,0.44 -1.7,0.14 -3.5,-0.01 -4.94,-0.94 -0.86,-0.55 -1.54,-1.43 -1.82,-2.4 -0.19,-0.65 -0.21,-1.33 0.02,-1.97 0.63,-1.82 2.75,-2.58 4.63,-2.99 1.23,-0.27 2.54,-0.47 3.8,-0.41 -0.18,-0.22 -0.34,-0.46 -0.48,-0.72 -0.58,-1.07 -0.75,-2.31 -0.77,-3.53 -0.05,-3.65 1.36,-7.24 3.72,-10.02 1.77,-2.1 4.08,-3.74 6.69,-4.6 3.63,-1.21 7.69,-0.85 11.16,0.74 -1.18,-4.54 -0.18,-9.67 2.85,-13.28 3.48,-4.15 9.41,-5.99 15.25,-4.27 0.71,0.21 1.43,0.47 2.14,0.79 0.09,-1.01 0.29,-2 0.59,-2.95 1.75,-5.43 6.85,-9.64 12.38,-11.51 6.26,-2.12 13.57,-1.73 18.99,2.04 5.42,3.77 8.38,11.18 5.36,18.07 4.21,-2.01 9.13,-2.69 13.64,-1.44 4.49,1.25 8.49,4.52 10.17,8.87 0.94,2.42 1.06,5.45 -0.33,8.4 2.98,-0.54 6.04,-0.6 9.04,-0.18 2.67,0.38 5.35,1.19 7.53,2.73 0.5,0.36 0.98,0.76 1.42,1.19 0.83,0.84 1.52,1.84 1.97,2.96 0.8,2 0.82,4.33 -0.49,6.51 2.28,-0.45 4.64,-0.89 6.9,-0.39 2.26,0.51 4.42,2.24 4.66,4.55 z"
       fill="#fefffe"
       id="path20" />
    <path
       d="m 185.99,102.11 c 0.03,0.31 0.03,0.62 0,0.91 -0.28,2.74 -3.2,4.78 -5.95,5.69 -6.29,2.1 -13.46,1.38 -19.2,-1.93 -1,3.25 -4.9,4.45 -8.22,5.14 -8.28,1.69 -17.69,3.01 -24.5,-2 -3.18,1.39 -6.47,1.7 -9.51,1.78 -3.27,0.11 -6.57,0.07 -9.77,-0.59 -3.2,-0.66 -6.34,-1.99 -8.74,-4.2 -9.31,6.2 -41.05,3.67 -42.78,-0.49 -2.04,-0.07 -3.71,0.31 -5.41,0.44 -1.7,0.14 -3.5,-0.01 -4.94,-0.94 -0.86,-0.55 -1.54,-1.43 -1.82,-2.4 -0.19,-0.65 -0.21,-1.33 0.02,-1.97 0.63,-1.82 2.75,-2.58 4.63,-2.99 1.23,-0.27 2.54,-0.47 3.8,-0.41 -0.18,-0.22 -0.34,-0.46 -0.48,-0.72 -0.58,-1.07 -0.75,-2.31 -0.77,-3.53 -0.05,-3.65 1.36,-7.24 3.72,-10.02 0.04,1.6 0.6,3.24 1.59,4.5 2.1,2.67 5.53,3.94 8.87,4.54 4.15,0.74 8.56,0.64 12.4,-1.1 3.84,-1.73 7.01,-5.28 7.54,-9.46 7.48,7.61 21.24,7.67 28.79,0.13 1.56,6.87 7.33,12.59 14.21,14.09 6.88,1.5 14.52,-1.31 18.79,-6.91 2.6,5.08 8.43,8.57 14.06,7.65 4.85,-0.8 8.92,-5.25 9.21,-10.03 0.5,0.36 0.98,0.76 1.42,1.19 0.83,0.84 1.52,1.84 1.97,2.96 0.8,2 0.82,4.33 -0.49,6.51 2.28,-0.45 4.64,-0.89 6.9,-0.39 2.26,0.51 4.42,2.24 4.66,4.55 z"
       fill="#fefffe"
       id="path21" />
    <path
       d="m 79.72,102.75 c -2.4,0.12 -4.28,0.41 -6.53,0.6 4.87,1.94 10.88,2.31 15.47,-0.56 -2.97,0.28 -5.96,-0.18 -8.94,-0.04 z"
       fill="#fefffe"
       id="path22" />
    <path
       d="m 82.21,99.4 c 3.19,0.47 6.52,0 9.28,-1.71 -3.17,0.07 -6.34,0.5 -9.28,1.71 z"
       fill="#fefffe"
       id="path23" />
    <path
       d="m 103.65,100.39 c -3.07,-0.16 -6.12,0.33 -9.08,1.13 3.22,0.85 6.65,0.49 9.65,-0.96 0.68,-0.26 -0.28,-0.12 -0.57,-0.17 z"
       fill="#fefffe"
       id="path24" />
    <path
       d="m 146.91,105.83 c -3.19,-0.05 -6.37,0.29 -9.55,0.53 5.22,2.18 11.97,2.8 16.79,-0.61 -2.37,0.5 -4.84,0.04 -7.25,0.08 z"
       fill="#fefffe"
       id="path25" />
    <path
       d="m 286.99,69.26 c -0.73,3.42 -3.92,5.88 -7.3,6.8 -3.37,0.91 -6.94,0.58 -10.75,0.35 -7.94,5.84 -32.12,5.67 -39.08,-2.35 -4.13,0.2 -8.28,0.15 -12.4,-0.16 -2.77,-0.21 -6.11,-1 -6.86,-3.67 -0.16,-0.59 -0.17,-1.2 -0.03,-1.79 0.17,-0.85 0.62,-1.66 1.23,-2.3 0.09,-0.1 0.2,-0.2 0.3,-0.29 1.21,-1.09 2.83,-1.63 4.43,-1.9 1.46,-0.26 3.17,-0.24 4.18,0.84 0.06,-0.89 0.21,-1.78 0.43,-2.65 1.01,-4.1 3.67,-7.82 7.53,-9.47 4.67,-1.99 10.91,-0.17 13.24,4.59 -0.8,-3.56 0.4,-7.42 2.75,-10.22 2.35,-2.79 5.75,-4.59 9.3,-5.45 4.98,-1.21 10.59,-0.53 14.62,2.64 1.75,1.38 3.11,3.29 3.95,5.46 1.08,2.81 1.29,6.06 0.33,9.2 3.4,-0.67 7.11,-0.36 10.03,1.51 1.78,1.14 3.19,2.92 3.84,4.91 0.04,0.11 0.07,0.22 0.1,0.33 0.35,1.17 0.43,2.41 0.16,3.62 z"
       fill="#fefffe"
       id="path26" />
    <path
       d="m 286.99,69.26 c -0.73,3.42 -3.92,5.88 -7.3,6.8 -3.37,0.91 -6.94,0.58 -10.75,0.35 -7.94,5.84 -32.12,5.67 -39.08,-2.35 -4.13,0.2 -8.28,0.15 -12.4,-0.16 -2.77,-0.21 -6.11,-1 -6.86,-3.67 -0.16,-0.59 -0.17,-1.2 -0.03,-1.79 0.17,-0.85 0.62,-1.66 1.23,-2.3 1.69,2.02 4.86,2.4 7.61,2.49 4.01,0.14 8.37,0.1 11.58,-2.31 5.03,4.71 13.71,4.76 18.63,-0.03 5.28,4.73 14.44,4.13 19.05,-1.25 1.72,3.85 6.03,6.36 10.23,5.95 3.31,-0.32 6.34,-2.45 7.93,-5.35 0.35,1.17 0.43,2.41 0.16,3.62 z"
       fill="#fefffe"
       id="path27" />
    <path
       d="m 247.34,75.68 c -2.03,-0.28 -2.87,-0.46 -5.11,-0.67 -0.07,-0.05 -0.19,-0.01 -0.28,0 -0.02,0 -0.04,0 -0.06,0 0,0 -0.01,0 -0.02,0 -0.05,0 -0.1,0 -0.16,0.01 -1.03,0.55 -0.05,1.33 0.78,1.42 2.62,0.67 5.4,0.46 7.98,-0.29 -0.93,-0.16 -2.67,-0.42 -3.14,-0.46 z"
       fill="#fefffe"
       id="path28" />
    <path
       d="m 247.37,73.46 c 1.64,0.5 3.41,0.25 4.96,-0.45 -1.67,-0.2 -3.34,0.05 -4.96,0.45 z"
       fill="#fefffe"
       id="path29" />
    <path
       d="m 255.74,76.18 c 2.34,0.13 4.64,-0.54 6.64,-1.74 -2.36,0.02 -4.55,0.65 -6.64,1.74 z"
       fill="#fefffe"
       id="path30" />
    <path
       d="m 248.67,83.56 c -0.66,3.32 -3.87,6.11 -6.61,6.41 -2.73,4.68 -7.77,7.92 -13.16,8.46 -5.38,0.54 -10.97,-1.64 -14.57,-5.68 -1.62,5.85 -8.36,8.68 -14.41,9.14 -3.62,0.27 -7.38,-0.04 -10.66,-1.62 -2.82,-1.35 -5.24,-3.76 -6.23,-6.7 -0.97,0.31 -1.97,0.53 -2.94,0.69 -7.35,1.25 -15.37,0.79 -21.59,-3.32 -1.21,-0.8 -2.39,-1.8 -2.88,-3.16 -0.41,-1.13 -0.3,-2.4 0.05,-3.55 0.81,-2.62 2.85,-4.67 5.32,-5.91 1.12,-0.55 2.33,-0.94 3.55,-1.14 1.56,-0.25 3.14,-0.23 4.7,0 -2.53,-5.61 -2.38,-12.36 0.33,-17.89 0.41,-0.85 0.89,-1.68 1.43,-2.47 4.33,-6.3 12.35,-9.85 19.93,-8.82 7.57,1.03 14.35,6.59 16.84,13.82 0.48,-5.47 6.91,-8.34 12.4,-8.44 4.94,-0.1 10.13,1.25 13.6,4.77 1.27,1.28 2.23,2.9 2.8,4.63 0.99,2.99 0.79,6.34 -1.02,8.89 3.39,-0.07 6.89,0.79 9.52,2.92 0.38,0.31 0.75,0.65 1.09,1.02 0.62,0.68 1.16,1.44 1.58,2.26 0.92,1.75 1.31,3.76 0.93,5.7 z"
       fill="#fefffe"
       id="path31" />
    <path
       d="m 248.67,83.56 c -0.66,3.32 -3.87,6.11 -6.61,6.41 -2.73,4.68 -7.77,7.92 -13.16,8.46 -5.38,0.54 -10.97,-1.64 -14.57,-5.68 -1.62,5.85 -8.36,8.68 -14.41,9.14 -3.62,0.27 -7.38,-0.04 -10.66,-1.62 -2.82,-1.35 -5.24,-3.76 -6.23,-6.7 -0.97,0.31 -1.97,0.53 -2.94,0.69 -7.35,1.25 -15.37,0.79 -21.59,-3.32 -1.21,-0.8 -2.39,-1.8 -2.88,-3.16 -0.41,-1.13 -0.3,-2.4 0.05,-3.55 0.81,-2.62 2.85,-4.67 5.32,-5.91 3.05,2.79 7.15,4.43 11.29,4.47 4.57,0.04 9.13,-1.88 12.3,-5.17 4.03,3.52 9.5,5.33 14.83,4.89 5.33,-0.44 10.44,-3.12 13.83,-7.26 1.69,3.02 4.86,5.17 8.29,5.61 3.43,0.44 7.05,-0.83 9.44,-3.33 2.01,2.69 5.66,4.05 8.95,3.33 2.76,-0.61 5.14,-2.66 6.24,-5.26 0.62,0.68 1.16,1.44 1.58,2.26 0.92,1.75 1.31,3.76 0.93,5.7 z"
       fill="#fefffe"
       id="path32" />
    <path
       d="m 200.57,93.81 c -2.38,0.14 -4.67,0.82 -7.01,1.2 3.58,1.13 7.98,0.77 10.96,-1.65 -1.3,0.34 -2.55,0.33 -3.95,0.45 z"
       fill="#fefffe"
       id="path33" />
    <path
       d="m 205.52,87.59 c -2.55,0.51 -4.47,1.28 -6.67,2.45 2.84,0.06 5.68,-0.73 7.92,-2.51 0.8,-0.5 -0.88,0.04 -1.24,0.06 z"
       fill="#fefffe"
       id="path34" />
    <path
       d="m 401.6,117.14 c -5.04,6.57 -12.13,6.71 -23.33,5.7 -1.82,3.72 -5.24,6.5 -9.02,8.22 -3.77,1.72 -7.91,2.49 -12.01,3.06 -7.04,0.97 -14.29,1.39 -21.32,0.56 -3.03,4.06 -8.58,6.22 -13.68,5.45 -2.57,-0.38 -4.98,-1.42 -7.09,-2.94 -17.96,9.88 -46.28,3.52 -63.5,-4.67 -2.31,2.26 -5.12,4.05 -8,5.56 -13.64,7.05 -30.36,7.87 -44.62,2.19 -4.41,-1.76 -8.73,-4.3 -12.17,-7.59 -5.91,4.41 -13.4,6.77 -20.82,7.57 -16.56,1.81 -33.77,-3.54 -46.38,-14.42 -2.62,-2.26 -5.16,-4.94 -5.9,-8.32 -0.03,-0.16 -0.06,-0.33 -0.09,-0.49 -6.41,-0.37 -12.78,-1.4 -18.98,-3.09 -3.23,-0.88 -7,-2.63 -7.22,-5.98 -0.04,-0.75 0.12,-1.49 0.44,-2.15 0.47,-1 1.29,-1.86 2.25,-2.47 0.43,-0.29 0.9,-0.52 1.38,-0.71 2.23,-0.83 4.72,-0.68 7.1,-0.52 -0.85,-3.56 1.22,-7.34 4.22,-9.46 1.22,-0.87 2.56,-1.52 3.98,-1.98 2.05,-0.72 4.24,-1.08 6.39,-1.35 6.34,-0.75 13.36,-0.46 18.26,3.65 4.25,-10.99 12.96,-17.74 22.37,-19.01 9.41,-1.28 19.13,2.56 25.9,9.22 1.11,1.11 2.16,2.3 3.07,3.59 0.87,-0.5 1.78,-0.93 2.71,-1.31 6.51,-2.64 14.51,-2.26 19.97,2.15 3.24,2.63 5.28,6.32 6.89,10.21 0.29,0.31 -3.04,-22.01 18.19,-30.55 9.14,-3.68 19.8,-2.37 28.24,2.69 7.35,-8.32 17.71,-13.8 28.64,-14.76 16.3,-1.42 33.06,7.31 41.24,21.48 2.92,-1.91 6.93,-1.63 10.23,0.08 3.29,1.71 5.82,4.85 6.81,8.43 5.65,-4.95 13.56,-5.02 19.57,-1.54 1.36,0.79 2.61,1.77 3.72,2.87 3.81,3.76 6.09,9.1 5.93,14.47 5.61,-4.54 13.93,-5.3 20.32,-2.03 0.47,0.24 0.94,0.5 1.39,0.79 1.57,0.99 3,2.25 4.14,3.71 0.94,1.21 1.7,2.56 2.17,4.02 1.06,3.22 0.65,6.98 -1.4,9.68 z"
       fill="#fefffe"
       id="path35" />
    <path
       d="m 401.6,117.14 c -5.04,6.57 -12.13,6.71 -23.33,5.7 -1.82,3.72 -5.24,6.5 -9.02,8.22 -3.77,1.72 -7.91,2.49 -12.01,3.06 -7.04,0.97 -14.29,1.39 -21.32,0.56 -3.03,4.06 -8.58,6.22 -13.68,5.45 -2.57,-0.38 -4.98,-1.42 -7.09,-2.94 -17.96,9.88 -46.28,3.52 -63.5,-4.67 -2.31,2.26 -5.12,4.05 -8,5.56 -13.64,7.05 -30.36,7.87 -44.62,2.19 -4.41,-1.76 -8.73,-4.3 -12.17,-7.59 -5.91,4.41 -13.4,6.77 -20.82,7.57 -16.56,1.81 -33.77,-3.54 -46.38,-14.42 -2.62,-2.26 -5.16,-4.94 -5.9,-8.32 -0.03,-0.16 -0.06,-0.33 -0.09,-0.49 -6.41,-0.37 -12.78,-1.4 -18.98,-3.09 -3.23,-0.88 -7,-2.63 -7.22,-5.98 -0.04,-0.75 0.12,-1.49 0.44,-2.15 0.47,-1 1.29,-1.86 2.25,-2.47 1.42,2.31 4.65,3.26 7.49,3.75 6.18,1.09 12.75,1.73 18.36,-0.46 5.77,4.22 12.34,7.36 19.25,9.19 3.94,1.04 8.04,1.65 12.09,1.18 4.04,-0.46 8.05,-2.08 10.91,-4.67 4.23,5.45 11.33,7.8 18.14,8.88 5.04,0.8 10.23,1.07 15.23,0.09 5.01,-0.98 9.86,-3.29 13.71,-7.08 8.42,3.92 18.03,5.82 27.11,3.84 9.08,-1.98 17.44,-8.26 19.85,-17.53 5.79,3.05 11.97,5.78 18.51,6.1 6.54,0.31 13.57,-2.25 16.79,-8.52 7.35,6.68 16.03,12.27 25.79,14.11 9.75,1.85 20.67,-0.58 27.69,-8.06 8.36,5.55 18.17,8.87 28.17,9.56 5.66,0.39 11.53,-0.1 16.59,-2.67 4.75,-2.4 8.64,-6.89 9.46,-12.09 0.47,0.24 0.94,0.5 1.39,0.79 1.57,0.99 3,2.25 4.14,3.71 0.94,1.21 1.7,2.56 2.17,4.02 1.06,3.22 0.65,6.98 -1.4,9.68 z"
       fill="#fefffe"
       id="path36" />
    <path
       d="m 324.09,125.69 c 3.88,1.79 8.42,1.4 12.2,-0.47 -4.08,-0.3 -8.14,0.08 -12.2,0.47 z"
       fill="#fefffe"
       id="path37" />
    <path
       d="m 322.5,121.1 c -3.14,-0.94 -5.64,-1.08 -8.81,-1.48 2.92,2.15 6.71,2.79 10.25,2.19 1.34,-0.1 -0.94,-0.5 -1.44,-0.71 z"
       fill="#fefffe"
       id="path38" />
    <path
       d="m 336.54,120.25 c -2.1,-0.06 -4.17,0.36 -6.23,0.74 2.28,0.77 4.74,0.57 6.94,-0.34 1.58,-0.54 0,-0.32 -0.71,-0.4 z"
       fill="#fefffe"
       id="path39" />
    <path
       d="m 160.04,131.41 c -3.03,-0.19 -6.05,0.13 -9.08,0.08 5.25,2.64 12.34,3.56 17.38,0.01 -2.74,0.47 -5.54,0.06 -8.3,-0.09 z"
       fill="#fefffe"
       id="path40" />
    <path
       d="m 145.34,127.3 c 2.61,1.24 5.66,1.28 8.4,0.49 -2.78,-0.71 -5.38,-0.77 -8.4,-0.49 z"
       fill="#fefffe"
       id="path41" />
    <path
       d="m 234.48,133.28 c -2.37,0.2 -5.59,1.22 -8.25,2.11 3.62,0.71 7.4,-0.23 10.47,-2.22 0.73,-0.37 -1.83,0.1 -2.22,0.11 z"
       fill="#fefffe"
       id="path42" />
  </g>
  <path
     d="m 16.7575,204.724 c 12.2615,-11.666 29.5104,-11.915 56.7582,-10.122 4.4278,-6.605 12.748,-11.542 21.9442,-14.596 9.1721,-3.055 19.2441,-4.422 29.2181,-5.434 17.127,-1.723 34.766,-2.468 51.868,-0.995 7.372,-7.209 20.874,-11.045 33.282,-9.677 6.252,0.674 12.115,2.521 17.248,5.22 43.694,-17.544 112.592,-6.25 154.486,8.293 5.62,-4.013 12.456,-7.192 19.462,-9.873 33.184,-12.519 73.861,-13.975 108.554,-3.889 10.729,3.125 21.238,7.636 29.607,13.478 14.378,-7.831 32.6,-12.022 50.652,-13.443 40.288,-3.214 82.157,6.287 112.835,25.607 6.374,4.013 12.554,8.772 14.354,14.774 0.073,0.284 0.146,0.586 0.219,0.87 15.594,0.657 31.092,2.486 46.175,5.487 7.858,1.563 17.03,4.671 17.565,10.619 0.098,1.332 -0.292,2.646 -1.07,3.818 -1.144,1.776 -3.139,3.303 -5.474,4.386 -1.046,0.515 -2.19,0.924 -3.357,1.261 -5.426,1.474 -11.483,1.208 -17.274,0.924 2.068,6.321 -2.968,13.034 -10.266,16.798 -2.968,1.545 -6.228,2.699 -9.683,3.516 -4.987,1.279 -10.315,1.918 -15.546,2.398 -15.424,1.331 -32.502,0.816 -44.423,-6.482 -10.34,19.516 -31.53,31.502 -54.423,33.757 -22.893,2.273 -46.54,-4.546 -63.01,-16.372 -2.701,-1.971 -5.255,-4.084 -7.469,-6.375 -2.117,0.888 -4.331,1.651 -6.593,2.326 -15.838,4.688 -35.301,4.013 -48.584,-3.818 -7.882,-4.67 -12.845,-11.223 -16.762,-18.13 -0.706,-0.551 7.396,39.084 -44.254,54.249 -22.236,6.535 -48.17,4.209 -68.703,-4.777 -17.881,14.775 -43.086,24.506 -69.677,26.211 -39.655,2.521 -80.429,-12.981 -100.33,-38.144 -7.104,3.392 -16.859,2.895 -24.888,-0.142 -8.004,-3.036 -14.159,-8.612 -16.567,-14.969 -13.746,8.79 -32.99,8.914 -47.611,2.734 -3.309,-1.403 -6.3498,-3.143 -9.0502,-5.096 -9.2691,-6.677 -14.816,-16.16 -14.4267,-25.695 -13.6483,8.061 -33.8895,9.411 -49.4354,3.604 -1.1434,-0.426 -2.2868,-0.888 -3.3816,-1.403 -3.8195,-1.758 -7.2985,-3.995 -10.072,-6.588 -2.2868,-2.148 -4.1358,-4.546 -5.2792,-7.138 -2.5788,-5.718 -1.5814,-12.395 3.406,-17.189 z"
     fill="#fefffe"
     id="path43" />
  <path
     d="m 247.508,190.849 c -9.758,-3.169 -21.177,-2.478 -30.684,0.832 10.262,0.532 20.473,-0.141 30.684,-0.832 z"
     fill="#fefffe"
     id="path44" />
  <path
     d="m 251.508,198.976 c 7.897,1.664 14.185,1.912 22.158,2.62 -7.344,-3.806 -16.877,-4.939 -25.78,-3.877 -3.37,0.177 2.364,0.885 3.622,1.257 z"
     fill="#fefffe"
     id="path45" />
  <path
     d="m 216.195,200.481 c 5.282,0.106 10.488,-0.638 15.67,-1.31 -5.735,-1.364 -11.922,-1.01 -17.455,0.602 -3.974,0.956 0,0.566 1.785,0.708 z"
     fill="#fefffe"
     id="path46" />
  <path
     d="m 660.11,180.722 c 7.621,0.336 15.216,-0.23 22.837,-0.142 -13.204,-4.674 -31.036,-6.303 -43.712,-0.017 6.891,-0.832 13.933,-0.107 20.875,0.159 z"
     fill="#fefffe"
     id="path47" />
  <path
     d="m 697.082,187.999 c -6.565,-2.196 -14.236,-2.266 -21.127,-0.868 6.992,1.257 13.531,1.364 21.127,0.868 z"
     fill="#fefffe"
     id="path48" />
  <path
     d="m 472.886,177.411 c 5.961,-0.354 14.059,-2.16 20.749,-3.736 -9.104,-1.257 -18.611,0.408 -26.333,3.931 -1.836,0.655 4.603,-0.177 5.584,-0.195 z"
     fill="#fefffe"
     id="path49" />
  <ellipse
     cx="149.5"
     cy="69"
     rx="58.5"
     ry="39"
     fill="#fefffe"
     id="ellipse49" />
  <ellipse
     cx="264"
     cy="83"
     rx="96"
     ry="64"
     fill="#fefffe"
     id="ellipse50" />
  <ellipse
     cx="638"
     cy="47.5"
     rx="49"
     ry="32.5"
     fill="#fefffe"
     id="ellipse51" />
  <ellipse
     cx="650.07709"
     cy="-263.61749"
     rx="65"
     ry="43"
     transform="rotate(30)"
     fill="#fefffe"
     id="ellipse52" />
  <ellipse
     cx="721.73145"
     cy="-299.49438"
     rx="59.7686"
     ry="48.048599"
     transform="rotate(30)"
     fill="#fefffe"
     id="ellipse53" />
  <ellipse
     cx="741.47552"
     cy="-162.21669"
     rx="46.165798"
     ry="32.5294"
     transform="rotate(30)"
     fill="#fefffe"
     id="ellipse54" />
  <ellipse
     cx="576.65186"
     cy="56.438271"
     rx="59.7686"
     ry="48.048599"
     transform="rotate(18.504)"
     fill="#fefffe"
     id="ellipse55" />
  <ellipse
     cx="593.37354"
     cy="467.1369"
     rx="35.093498"
     ry="28.212099"
     transform="rotate(-17.8621)"
     fill="#fefffe"
     id="ellipse56" />
  <ellipse
     cx="620.49786"
     cy="298.97128"
     rx="59.5667"
     ry="34.3386"
     transform="rotate(-2.09511)"
     fill="#fefffe"
     id="ellipse57" />
  <ellipse
     cx="619.05188"
     cy="417.25681"
     rx="46.893002"
     ry="37.6978"
     transform="rotate(-17.8621)"
     fill="#fefffe"
     id="ellipse58" />
  <ellipse
     cx="645.11639"
     cy="-282.47556"
     rx="72.631699"
     ry="48.048599"
     transform="rotate(30)"
     fill="#fefffe"
     id="ellipse59" />
  <ellipse
     cx="363.5"
     cy="86"
     rx="67.5"
     ry="45"
     fill="#fefffe"
     id="ellipse60" />
  <defs
     id="defs60">
    <clipPath
       id="clip0_4035_6078">
      <rect
         width="358.57001"
         height="106.02"
         fill="#ffffff"
         transform="translate(45,38)"
         id="rect60"
         x="0"
         y="0" />
    </clipPath>
  </defs>
</svg>
